<svg xmlns="http://www.w3.org/2000/svg" xmlns:xlink="http://www.w3.org/1999/xlink" width="500" zoomAndPan="magnify" viewBox="0 0 375 374.999991" height="500" preserveAspectRatio="xMidYMid meet" version="1.0"><defs><g/><clipPath id="f27769d8dc"><path d="M 0 161.511719 L 50.132812 161.511719 L 50.132812 211.644531 L 0 211.644531 Z M 0 161.511719 " clip-rule="nonzero"/></clipPath><clipPath id="2768940a4c"><path d="M 25.066406 161.511719 C 11.222656 161.511719 0 172.734375 0 186.578125 C 0 200.421875 11.222656 211.644531 25.066406 211.644531 C 38.910156 211.644531 50.132812 200.421875 50.132812 186.578125 C 50.132812 172.734375 38.910156 161.511719 25.066406 161.511719 Z M 25.066406 161.511719 " clip-rule="nonzero"/></clipPath><clipPath id="4975dd2767"><path d="M 96.796875 86.386719 L 146.929688 86.386719 L 146.929688 136.519531 L 96.796875 136.519531 Z M 96.796875 86.386719 " clip-rule="nonzero"/></clipPath><clipPath id="9b4d034156"><path d="M 121.863281 86.386719 C 108.019531 86.386719 96.796875 97.609375 96.796875 111.453125 C 96.796875 125.296875 108.019531 136.519531 121.863281 136.519531 C 135.707031 136.519531 146.929688 125.296875 146.929688 111.453125 C 146.929688 97.609375 135.707031 86.386719 121.863281 86.386719 Z M 121.863281 86.386719 " clip-rule="nonzero"/></clipPath><clipPath id="74543ce202"><path d="M 192.796875 11.929688 L 242.929688 11.929688 L 242.929688 62.0625 L 192.796875 62.0625 Z M 192.796875 11.929688 " clip-rule="nonzero"/></clipPath><clipPath id="84fd84fcbc"><path d="M 217.863281 11.929688 C 204.019531 11.929688 192.796875 23.152344 192.796875 36.996094 C 192.796875 50.839844 204.019531 62.0625 217.863281 62.0625 C 231.707031 62.0625 242.929688 50.839844 242.929688 36.996094 C 242.929688 23.152344 231.707031 11.929688 217.863281 11.929688 Z M 217.863281 11.929688 " clip-rule="nonzero"/></clipPath><clipPath id="7dd7a3dde1"><path d="M 96.796875 238.050781 L 146.929688 238.050781 L 146.929688 288.183594 L 96.796875 288.183594 Z M 96.796875 238.050781 " clip-rule="nonzero"/></clipPath><clipPath id="7751aab8ca"><path d="M 121.863281 238.050781 C 108.019531 238.050781 96.796875 249.273438 96.796875 263.117188 C 96.796875 276.960938 108.019531 288.183594 121.863281 288.183594 C 135.707031 288.183594 146.929688 276.960938 146.929688 263.117188 C 146.929688 249.273438 135.707031 238.050781 121.863281 238.050781 Z M 121.863281 238.050781 " clip-rule="nonzero"/></clipPath><clipPath id="b4705e0afc"><path d="M 192.796875 312.929688 L 242.929688 312.929688 L 242.929688 363.0625 L 192.796875 363.0625 Z M 192.796875 312.929688 " clip-rule="nonzero"/></clipPath><clipPath id="18c71bcf25"><path d="M 217.863281 312.929688 C 204.019531 312.929688 192.796875 324.152344 192.796875 337.996094 C 192.796875 351.839844 204.019531 363.0625 217.863281 363.0625 C 231.707031 363.0625 242.929688 351.839844 242.929688 337.996094 C 242.929688 324.152344 231.707031 312.929688 217.863281 312.929688 Z M 217.863281 312.929688 " clip-rule="nonzero"/></clipPath></defs><path stroke-linecap="round" transform="matrix(0.587587, 0.466092, -0.466092, 0.587587, 44.022218, 198.797037)" fill="none" stroke-linejoin="miter" d="M 2.999154 2.998898 L 33.768889 3.002684 " stroke="#356c99" stroke-width="6" stroke-opacity="1" stroke-miterlimit="4"/><path stroke-linecap="round" transform="matrix(0.587587, 0.466092, -0.466092, 0.587587, 83.861044, 229.865786)" fill="none" stroke-linejoin="miter" d="M 3.001513 2.999688 L 33.768011 2.999393 " stroke="#356c99" stroke-width="6" stroke-opacity="1" stroke-miterlimit="4"/><path stroke-linecap="round" transform="matrix(0.594081, -0.457785, 0.457785, 0.594081, 41.710871, 170.674837)" fill="none" stroke-linejoin="miter" d="M 3.002135 2.998794 L 32.588996 3.001251 " stroke="#356c99" stroke-width="6" stroke-opacity="1" stroke-miterlimit="4"/><path stroke-linecap="round" transform="matrix(0.59352, -0.458513, 0.458513, 0.59352, 81.670106, 139.615097)" fill="none" stroke-linejoin="miter" d="M 3.002506 3.000947 L 32.120073 2.999628 " stroke="#356c99" stroke-width="6" stroke-opacity="1" stroke-miterlimit="4"/><path stroke-linecap="round" transform="matrix(0.59352, -0.458513, 0.458513, 0.59352, 138.907335, 95.291156)" fill="none" stroke-linejoin="miter" d="M 2.99972 2.998327 L 32.121409 3.000193 " stroke="#356c99" stroke-width="6" stroke-opacity="1" stroke-miterlimit="4"/><path stroke-linecap="round" transform="matrix(0.59352, -0.458513, 0.458513, 0.59352, 177.699134, 65.224544)" fill="none" stroke-linejoin="miter" d="M 3.000786 2.999498 L 32.122475 3.001363 " stroke="#356c99" stroke-width="6" stroke-opacity="1" stroke-miterlimit="4"/><path stroke-linecap="round" transform="matrix(0.587587, 0.466092, -0.466092, 0.587587, 141.292334, 275.381641)" fill="none" stroke-linejoin="miter" d="M 2.999647 3.000776 L 33.766145 3.000481 " stroke="#356c99" stroke-width="6" stroke-opacity="1" stroke-miterlimit="4"/><path stroke-linecap="round" transform="matrix(0.587587, 0.466092, -0.466092, 0.587587, 180.225753, 305.753418)" fill="none" stroke-linejoin="miter" d="M 2.999263 2.999917 L 33.765762 2.999622 " stroke="#356c99" stroke-width="6" stroke-opacity="1" stroke-miterlimit="4"/><path stroke-linecap="round" transform="matrix(0, -0.75, 0.75, 0, 119.612713, 157.506714)" fill="none" stroke-linejoin="miter" d="M 2.998536 3.000757 L 29.279788 3.000757 " stroke="#356c99" stroke-width="6" stroke-opacity="1" stroke-miterlimit="4"/><path stroke-linecap="round" transform="matrix(0, -0.75, 0.75, 0, 119.612713, 241.268495)" fill="none" stroke-linejoin="miter" d="M 2.998618 3.000757 L 29.27987 3.000757 " stroke="#356c99" stroke-width="6" stroke-opacity="1" stroke-miterlimit="4"/><g fill="#0d486c" fill-opacity="1"><g transform="translate(139.867378, 211.617788)"><g><path d="M 9.917969 0.382812 C 12.542969 0.382812 14.398438 -1.664062 14.398438 -4.222656 L 14.398438 -25.917969 L 17.597656 -25.917969 C 20.09375 -25.917969 22.015625 -27.136719 22.015625 -29.949219 C 22.015625 -32.832031 20.09375 -34.046875 17.597656 -34.046875 L 14.398438 -34.046875 L 14.398438 -38.335938 C 14.398438 -39.933594 15.101562 -41.085938 16.511719 -41.085938 L 17.152344 -41.085938 C 19.96875 -41.085938 21.4375 -42.367188 21.4375 -45.183594 C 21.4375 -47.742188 19.328125 -49.277344 15.550781 -49.277344 L 14.785156 -49.277344 C 8.960938 -49.277344 5.503906 -44.671875 5.503906 -39.292969 L 5.503906 -34.046875 L 4.097656 -34.046875 C 0.960938 -34.046875 -0.640625 -32.703125 -0.640625 -29.949219 C -0.640625 -27.261719 0.894531 -25.917969 4.351562 -25.917969 L 5.503906 -25.917969 L 5.503906 -4.222656 C 5.503906 -1.664062 7.359375 0.382812 9.917969 0.382812 Z M 9.917969 0.382812 "/></g></g></g><g fill="#0d486c" fill-opacity="1"><g transform="translate(161.050082, 211.617788)"><g><path d="M 6.976562 0.382812 C 9.601562 0.382812 11.457031 -1.664062 11.457031 -4.222656 L 11.457031 -44.734375 C 11.457031 -47.230469 9.726562 -49.277344 6.976562 -49.277344 C 4.351562 -49.277344 2.558594 -47.230469 2.558594 -44.734375 L 2.558594 -4.222656 C 2.558594 -1.664062 4.351562 0.382812 6.976562 0.382812 Z M 6.976562 0.382812 "/></g></g></g><g fill="#0d486c" fill-opacity="1"><g transform="translate(175.00123, 211.617788)"><g><path d="M 16.511719 0.894531 C 20.351562 0.894531 23.101562 -0.382812 25.277344 -3.265625 L 25.40625 -3.265625 L 25.535156 -2.558594 C 25.984375 -1.023438 27.199219 0.382812 29.628906 0.382812 C 32.253906 0.382812 33.984375 -1.664062 33.984375 -4.222656 L 33.984375 -29.824219 C 33.984375 -32.382812 32.253906 -34.429688 29.628906 -34.429688 C 27.199219 -34.429688 25.984375 -33.023438 25.535156 -31.488281 L 25.40625 -30.78125 L 25.277344 -30.78125 C 22.976562 -33.664062 20.351562 -34.941406 16.511719 -34.941406 C 7.871094 -34.941406 1.28125 -27.070312 1.28125 -17.023438 C 1.28125 -6.910156 7.808594 0.894531 16.511719 0.894531 Z M 17.664062 -7.550781 C 13.121094 -7.550781 10.238281 -11.519531 10.238281 -17.023438 C 10.238281 -22.464844 13.121094 -26.496094 17.597656 -26.496094 C 22.335938 -26.496094 25.085938 -22.464844 25.085938 -17.023438 C 25.085938 -11.519531 22.269531 -7.550781 17.664062 -7.550781 Z M 17.664062 -7.550781 "/></g></g></g><g fill="#0d486c" fill-opacity="1"><g transform="translate(211.478995, 211.617788)"><g><path d="M 7.167969 0.382812 C 9.726562 0.382812 11.582031 -1.664062 11.582031 -4.222656 L 11.582031 -20.863281 C 11.582031 -24.382812 13.824219 -27.328125 17.152344 -27.328125 C 20.800781 -27.328125 22.65625 -24.320312 22.65625 -20.925781 L 22.65625 -4.222656 C 22.65625 -1.664062 24.511719 0.382812 27.136719 0.382812 C 29.757812 0.382812 31.613281 -1.664062 31.613281 -4.222656 L 31.613281 -20.925781 C 31.613281 -24.574219 33.917969 -27.328125 37.183594 -27.328125 C 40.636719 -27.328125 42.6875 -24.511719 42.6875 -20.925781 L 42.6875 -4.222656 C 42.6875 -1.664062 44.542969 0.382812 47.101562 0.382812 C 49.726562 0.382812 51.582031 -1.664062 51.582031 -4.222656 L 51.582031 -23.296875 C 51.582031 -30.335938 46.78125 -34.941406 39.230469 -34.941406 C 35.902344 -34.941406 32.832031 -33.535156 29.503906 -30.460938 C 27.710938 -33.152344 24.128906 -34.941406 20.289062 -34.941406 C 16.128906 -34.941406 13.375 -33.597656 11.648438 -30.910156 L 11.519531 -30.910156 L 11.457031 -31.488281 C 11.007812 -33.023438 9.664062 -34.429688 7.167969 -34.429688 C 4.542969 -34.429688 2.6875 -32.382812 2.6875 -29.824219 L 2.6875 -4.222656 C 2.6875 -1.664062 4.542969 0.382812 7.167969 0.382812 Z M 7.167969 0.382812 "/></g></g></g><g fill="#0d486c" fill-opacity="1"><g transform="translate(265.747665, 211.617788)"><g><path d="M 16.511719 0.894531 C 20.351562 0.894531 23.101562 -0.382812 25.277344 -3.265625 L 25.40625 -3.265625 L 25.535156 -2.558594 C 25.984375 -1.023438 27.199219 0.382812 29.628906 0.382812 C 32.253906 0.382812 33.984375 -1.664062 33.984375 -4.222656 L 33.984375 -29.824219 C 33.984375 -32.382812 32.253906 -34.429688 29.628906 -34.429688 C 27.199219 -34.429688 25.984375 -33.023438 25.535156 -31.488281 L 25.40625 -30.78125 L 25.277344 -30.78125 C 22.976562 -33.664062 20.351562 -34.941406 16.511719 -34.941406 C 7.871094 -34.941406 1.28125 -27.070312 1.28125 -17.023438 C 1.28125 -6.910156 7.808594 0.894531 16.511719 0.894531 Z M 17.664062 -7.550781 C 13.121094 -7.550781 10.238281 -11.519531 10.238281 -17.023438 C 10.238281 -22.464844 13.121094 -26.496094 17.597656 -26.496094 C 22.335938 -26.496094 25.085938 -22.464844 25.085938 -17.023438 C 25.085938 -11.519531 22.269531 -7.550781 17.664062 -7.550781 Z M 17.664062 -7.550781 "/></g></g></g><g fill="#356c99" fill-opacity="1"><g transform="translate(302.230652, 211.617788)"><g><path d="M 6.976562 14.144531 C 9.601562 14.144531 11.457031 12.03125 11.457031 9.601562 L 11.457031 -2.238281 L 11.582031 -2.238281 C 13.953125 -0.128906 16.449219 0.894531 19.96875 0.894531 C 28.734375 0.894531 35.261719 -7.039062 35.261719 -17.023438 C 35.261719 -27.007812 28.800781 -34.941406 19.96875 -34.941406 C 16.0625 -34.941406 12.863281 -33.535156 11.199219 -30.78125 L 11.070312 -30.78125 L 11.007812 -31.488281 C 10.496094 -33.023438 9.34375 -34.429688 6.785156 -34.429688 C 4.222656 -34.429688 2.558594 -32.382812 2.558594 -29.824219 L 2.558594 9.601562 C 2.558594 12.03125 4.351562 14.144531 6.976562 14.144531 Z M 18.816406 -7.550781 C 14.269531 -7.550781 11.457031 -11.519531 11.457031 -17.023438 C 11.457031 -22.527344 14.335938 -26.496094 18.75 -26.496094 C 23.488281 -26.496094 26.238281 -22.464844 26.238281 -17.023438 C 26.238281 -11.519531 23.421875 -7.550781 18.816406 -7.550781 Z M 18.816406 -7.550781 "/></g></g></g><g fill="#fece3e" fill-opacity="1"><g transform="translate(338.711115, 211.617788)"><g><path d="M 10.238281 14.144531 C 12.414062 14.144531 13.566406 13.503906 15.101562 9.984375 L 29.375 -25.023438 C 30.335938 -27.261719 30.910156 -28.925781 30.910156 -29.949219 C 30.910156 -32.640625 29.117188 -34.429688 26.367188 -34.429688 C 24.320312 -34.429688 22.78125 -32.957031 21.566406 -29.757812 L 15.488281 -13.953125 L 15.359375 -13.953125 L 9.085938 -30.910156 C 7.9375 -33.855469 6.078125 -34.429688 4.480469 -34.429688 C 1.984375 -34.429688 0.128906 -32.703125 0.128906 -30.269531 C 0.128906 -29.183594 1.535156 -25.984375 1.984375 -24.832031 L 10.816406 -2.75 L 7.359375 5.3125 C 6.589844 6.976562 5.886719 8.640625 5.886719 10.113281 C 5.886719 12.222656 7.550781 14.144531 10.238281 14.144531 Z M 10.238281 14.144531 "/></g></g></g><g clip-path="url(#f27769d8dc)"><g clip-path="url(#2768940a4c)"><path stroke-linecap="butt" transform="matrix(0.75, 0, 0, 0.75, 0.0000045, 161.512578)" fill="none" stroke-linejoin="miter" d="M 33.421871 -0.00114593 C 14.963537 -0.00114593 -0.000006 14.962397 -0.000006 33.420731 C -0.000006 51.879066 14.963537 66.842608 33.421871 66.842608 C 51.880206 66.842608 66.843748 51.879066 66.843748 33.420731 C 66.843748 14.962397 51.880206 -0.00114593 33.421871 -0.00114593 Z M 33.421871 -0.00114593 " stroke="#0d486c" stroke-width="20" stroke-opacity="1" stroke-miterlimit="4"/></g></g><g clip-path="url(#4975dd2767)"><g clip-path="url(#9b4d034156)"><path stroke-linecap="butt" transform="matrix(0.75, 0, 0, 0.75, 96.798221, 86.388143)" fill="none" stroke-linejoin="miter" d="M 33.420082 -0.00189917 C 14.961748 -0.00189917 -0.00179512 14.961643 -0.00179512 33.419978 C -0.00179512 51.878313 14.961748 66.841855 33.420082 66.841855 C 51.878417 66.841855 66.841959 51.878313 66.841959 33.419978 C 66.841959 14.961643 51.878417 -0.00189917 33.420082 -0.00189917 Z M 33.420082 -0.00189917 " stroke="#0d486c" stroke-width="20" stroke-opacity="1" stroke-miterlimit="4"/></g></g><g clip-path="url(#74543ce202)"><g clip-path="url(#84fd84fcbc)"><path stroke-linecap="butt" transform="matrix(0.75, 0, 0, 0.75, 192.797305, 11.931013)" fill="none" stroke-linejoin="miter" d="M 33.421303 -0.00176784 C 14.962969 -0.00176784 -0.00057392 14.961775 -0.00057392 33.420109 C -0.00057392 51.878444 14.962969 66.841987 33.421303 66.841987 C 51.879638 66.841987 66.84318 51.878444 66.84318 33.420109 C 66.84318 14.961775 51.879638 -0.00176784 33.421303 -0.00176784 Z M 33.421303 -0.00176784 " stroke="#0d486c" stroke-width="20" stroke-opacity="1" stroke-miterlimit="4"/></g></g><g clip-path="url(#7dd7a3dde1)"><g clip-path="url(#7751aab8ca)"><path stroke-linecap="butt" transform="matrix(0.75, 0, 0, 0.75, 96.798221, 238.049516)" fill="none" stroke-linejoin="miter" d="M 33.420082 0.00168651 C 14.961748 0.00168651 -0.00179512 14.965229 -0.00179512 33.423564 C -0.00179512 51.881898 14.961748 66.845441 33.420082 66.845441 C 51.878417 66.845441 66.841959 51.881898 66.841959 33.423564 C 66.841959 14.965229 51.878417 0.00168651 33.420082 0.00168651 Z M 33.420082 0.00168651 " stroke="#0d486c" stroke-width="20" stroke-opacity="1" stroke-miterlimit="4"/></g></g><g clip-path="url(#b4705e0afc)"><g clip-path="url(#18c71bcf25)"><path stroke-linecap="butt" transform="matrix(0.75, 0, 0, 0.75, 192.797305, 312.930625)" fill="none" stroke-linejoin="miter" d="M 33.421303 -0.00125007 C 14.962969 -0.00125007 -0.00057392 14.962293 -0.00057392 33.420627 C -0.00057392 51.878962 14.962969 66.842504 33.421303 66.842504 C 51.879638 66.842504 66.84318 51.878962 66.84318 33.420627 C 66.84318 14.962293 51.879638 -0.00125007 33.421303 -0.00125007 Z M 33.421303 -0.00125007 " stroke="#0d486c" stroke-width="20" stroke-opacity="1" stroke-miterlimit="4"/></g></g></svg>